<svg xmlns="http://www.w3.org/2000/svg" xmlns:xlink="http://www.w3.org/1999/xlink" style="margin:auto;background:#ffffff;display:block;z-index:1;position:relative;" width="905" height="979" preserveAspectRatio="xMidYMid" viewBox="0 0 905 979">
<g transform="translate(452.5,489.5) scale(1,1) translate(-452.5,-489.5)"><path id="path0" d="M 303.24316390210055 16.324462731585637
c 0 19.372495878753995 -4.740078778844062 5.564440305599551 -10.304519084443612 5.564440305599551
S 282.63412573321335 35.696958610339635 282.63412573321335 16.324462731585637
s 4.740078778844062 -5.564440305599551 10.304519084443612 -5.564440305599551
S 303.24316390210055 -3.0480331471683577 303.24316390210055 16.324462731585637
z" fill="none" stroke="none"></path>
<circle cx="0" cy="0" r="6.22270950527788" fill="#de9dd6" opacity="0.9">
  <animateMotion begin="-5.24707536569286s" dur="10s" repeatCount="indefinite">
    <mpath xlink:href="#path0"></mpath>
  </animateMotion>
</circle><path id="path1" d="M 177.73465098756088 259.77103702057553
c 0 28.84747973397215 -7.0584258923548875 8.285978221460086 -15.344404113814974 8.285978221460086
S 147.0458427599309 288.61851675454767 147.0458427599309 259.77103702057553
s 7.0584258923548875 -8.285978221460086 15.344404113814974 -8.285978221460086
S 177.73465098756088 230.9235572866034 177.73465098756088 259.77103702057553
z" fill="none" stroke="none"></path>
<circle cx="0" cy="0" r="6.004149961283492" fill="#51cacc" opacity="0.9">
  <animateMotion begin="-6.006789162013357s" dur="10s" repeatCount="indefinite">
    <mpath xlink:href="#path1"></mpath>
  </animateMotion>
</circle><path id="path2" d="M 126.89426493018844 561.2786267395435
c 0 36.598180377650856 -8.954873922191165 10.512243299963544 -19.46711722215471 10.512243299963544
S 87.96003048587902 597.8768071171943 87.96003048587902 561.2786267395435
s 8.954873922191165 -10.512243299963544 19.46711722215471 -10.512243299963544
S 126.89426493018844 524.6804463618927 126.89426493018844 561.2786267395435
z" fill="none" stroke="none"></path>
<circle cx="0" cy="0" r="6.502865384662107" fill="#e0ff77" opacity="0.9">
  <animateMotion begin="-9.442996374845979s" dur="10s" repeatCount="indefinite">
    <mpath xlink:href="#path2"></mpath>
  </animateMotion>
</circle><path id="path3" d="M 295.80053793156964 768.0323684643902
c 0 23.99851353463986 -5.871976715922518 6.893190057822087 -12.765166773744605 6.893190057822087
S 270.2702043840804 792.03088199903 270.2702043840804 768.0323684643902
s 5.871976715922518 -6.893190057822087 12.765166773744605 -6.893190057822087
S 295.80053793156964 744.0338549297503 295.80053793156964 768.0323684643902
z" fill="none" stroke="none"></path>
<circle cx="0" cy="0" r="7.657733256857297" fill="#51cacc" opacity="0.9">
  <animateMotion begin="-4.331244119100215s" dur="10s" repeatCount="indefinite">
    <mpath xlink:href="#path3"></mpath>
  </animateMotion>
</circle><path id="path4" d="M 711.1190984417818 647.2273603444271
c 0 37.12162540798845 -9.082950897699298 10.662594532081787 -19.745545429781085 10.662594532081787
S 671.6280075822198 684.3489857524155 671.6280075822198 647.2273603444271
s 9.082950897699298 -10.662594532081787 19.745545429781085 -10.662594532081787
S 711.1190984417818 610.1057349364387 711.1190984417818 647.2273603444271
z" fill="none" stroke="none"></path>
<circle cx="0" cy="0" r="6.256839747764275" fill="#51cacc" opacity="0.9">
  <animateMotion begin="-0.6182341397005731s" dur="10s" repeatCount="indefinite">
    <mpath xlink:href="#path4"></mpath>
  </animateMotion>
</circle><path id="path5" d="M 864.1184310748711 951.8119202698487
c 0 34.1031194777085 -8.344380297737187 9.7955768712567 -18.139957168993885 9.7955768712567
S 827.8385167368833 985.9150397475571 827.8385167368833 951.8119202698487
s 8.344380297737187 -9.7955768712567 18.139957168993885 -9.7955768712567
S 864.1184310748711 917.7088007921402 864.1184310748711 951.8119202698487
z" fill="none" stroke="none"></path>
<circle cx="0" cy="0" r="5.862224930066785" fill="#de9dd6" opacity="0.9">
  <animateMotion begin="-5.025404143353311s" dur="10s" repeatCount="indefinite">
    <mpath xlink:href="#path5"></mpath>
  </animateMotion>
</circle><path id="path6" d="M 244.10899756048678 519.1458912965938
c 0 37.4546340369746 -9.16443173245123 10.758245946790577 -19.922677679241808 10.758245946790577
S 204.26364220200315 556.6005253335685 204.26364220200315 519.1458912965938
s 9.16443173245123 -10.758245946790577 19.922677679241808 -10.758245946790577
S 244.10899756048678 481.69125725961925 244.10899756048678 519.1458912965938
z" fill="none" stroke="none"></path>
<circle cx="0" cy="0" r="4.570892989130051" fill="#51cacc" opacity="0.9">
  <animateMotion begin="-6.035280393300173s" dur="10s" repeatCount="indefinite">
    <mpath xlink:href="#path6"></mpath>
  </animateMotion>
</circle><path id="path7" d="M 871.9273035043581 382.0821845410936
c 0 22.0900193931397 -5.405004745129926 6.3450055703699135 -11.75001031549984 6.3450055703699135
S 848.4272828733584 404.1722039342333 848.4272828733584 382.0821845410936
s 5.405004745129926 -6.3450055703699135 11.75001031549984 -6.3450055703699135
S 871.9273035043581 359.9921651479539 871.9273035043581 382.0821845410936
z" fill="none" stroke="none"></path>
<circle cx="0" cy="0" r="5.985751486584033" fill="#e0ff77" opacity="0.9">
  <animateMotion begin="-6.917312323800841s" dur="10s" repeatCount="indefinite">
    <mpath xlink:href="#path7"></mpath>
  </animateMotion>
</circle><path id="path8" d="M 290.0171806195194 819.6252479591974
c 0 27.12132401357132 -6.636068641618514 7.790167535813039 -14.426236177431553 7.790167535813039
S 261.16470826465627 846.7465719727687 261.16470826465627 819.6252479591974
s 6.636068641618514 -7.790167535813039 14.426236177431553 -7.790167535813039
S 290.0171806195194 792.5039239456261 290.0171806195194 819.6252479591974
z" fill="none" stroke="none"></path>
<circle cx="0" cy="0" r="7.754833364809722" fill="#e0ff77" opacity="0.9">
  <animateMotion begin="-0.46313353567254634s" dur="10s" repeatCount="indefinite">
    <mpath xlink:href="#path8"></mpath>
  </animateMotion>
</circle><path id="path9" d="M 780.6980448092738 113.6032748448619
c 0 25.83200761264068 -6.320597607348251 7.4198319738436 -13.74042958119185 7.4198319738436
S 753.2171856468901 139.43528245750258 753.2171856468901 113.6032748448619
s 6.320597607348251 -7.4198319738436 13.74042958119185 -7.4198319738436
S 780.6980448092738 87.77126723222122 780.6980448092738 113.6032748448619
z" fill="none" stroke="none"></path>
<circle cx="0" cy="0" r="5.413129011123849" fill="#9df871" opacity="0.9">
  <animateMotion begin="-8.205067015096128s" dur="10s" repeatCount="indefinite">
    <mpath xlink:href="#path9"></mpath>
  </animateMotion>
</circle><path id="path10" d="M 263.53725625716345 744.8422021199938
c 0 36.46969889681771 -8.92343696411497 10.47533904483062 -19.39877600894559 10.47533904483062
S 224.73970423927227 781.3119010168115 224.73970423927227 744.8422021199938
s 8.92343696411497 -10.47533904483062 19.39877600894559 -10.47533904483062
S 263.53725625716345 708.3725032231761 263.53725625716345 744.8422021199938
z" fill="none" stroke="none"></path>
<circle cx="0" cy="0" r="4.035802394992335" fill="#de9dd6" opacity="0.9">
  <animateMotion begin="-5.4362166532927585s" dur="10s" repeatCount="indefinite">
    <mpath xlink:href="#path10"></mpath>
  </animateMotion>
</circle><path id="path11" d="M 514.5528978218427 341.73232539097927
c 0 36.689563455969584 -8.977233611567025 10.538491630969988 -19.515725242537012 10.538491630969988
S 475.5214473367687 378.42188884694883 475.5214473367687 341.73232539097927
s 8.977233611567025 -10.538491630969988 19.515725242537012 -10.538491630969988
S 514.5528978218427 305.0427619350097 514.5528978218427 341.73232539097927
z" fill="none" stroke="none"></path>
<circle cx="0" cy="0" r="6.889601202326436" fill="#ff708e" opacity="0.9">
  <animateMotion begin="-7.6437641277024015s" dur="10s" repeatCount="indefinite">
    <mpath xlink:href="#path11"></mpath>
  </animateMotion>
</circle><path id="path12" d="M 464.51214851308634 462.75250087484415
c 0 21.052136748196528 -5.151054736260852 6.046890342567088 -11.19794507882794 6.046890342567088
S 442.11625835543043 483.80463762304066 442.11625835543043 462.75250087484415
s 5.151054736260852 -6.046890342567088 11.19794507882794 -6.046890342567088
S 464.51214851308634 441.7003641266476 464.51214851308634 462.75250087484415
z" fill="none" stroke="none"></path>
<circle cx="0" cy="0" r="7.80742493966229" fill="#ff708e" opacity="0.9">
  <animateMotion begin="-8.87221110983058s" dur="10s" repeatCount="indefinite">
    <mpath xlink:href="#path12"></mpath>
  </animateMotion>
</circle><path id="path13" d="M 359.3943188268217 596.4408768740778
c 0 26.241164246774144 -6.420710400806439 7.5373556879032115 -13.95806608870965 7.5373556879032115
S 331.4781866494024 622.682041120852 331.4781866494024 596.4408768740778
s 6.420710400806439 -7.5373556879032115 13.95806608870965 -7.5373556879032115
S 359.3943188268217 570.1997126273037 359.3943188268217 596.4408768740778
z" fill="none" stroke="none"></path>
<circle cx="0" cy="0" r="4.325261528122994" fill="#ff708e" opacity="0.9">
  <animateMotion begin="-9.431642350572499s" dur="10s" repeatCount="indefinite">
    <mpath xlink:href="#path13"></mpath>
  </animateMotion>
</circle><path id="path14" d="M 391.27857552842784 365.83856114922986
c 0 31.384413340802254 -7.679164966366508 9.014671917038946 -16.693836883405453 9.014671917038946
S 357.8909017616169 397.22297449003213 357.8909017616169 365.83856114922986
s 7.679164966366508 -9.014671917038946 16.693836883405453 -9.014671917038946
S 391.27857552842784 334.4541478084276 391.27857552842784 365.83856114922986
z" fill="none" stroke="none"></path>
<circle cx="0" cy="0" r="6.459427863869773" fill="#de9dd6" opacity="0.9">
  <animateMotion begin="-1.9361698956313322s" dur="10s" repeatCount="indefinite">
    <mpath xlink:href="#path14"></mpath>
  </animateMotion>
</circle><path id="path15" d="M 42.99578109947423 779.4804091295961
c 0 19.62150834331739 -4.801007360598936 5.63596516244223 -10.436972523041167 5.63596516244223
S 22.121836053391892 799.1019174729134 22.121836053391892 779.4804091295961
s 4.801007360598936 -5.63596516244223 10.436972523041167 -5.63596516244223
S 42.99578109947423 759.8589007862787 42.99578109947423 779.4804091295961
z" fill="none" stroke="none"></path>
<circle cx="0" cy="0" r="6.721694833275789" fill="#9df871" opacity="0.9">
  <animateMotion begin="-3.377012341908825s" dur="10s" repeatCount="indefinite">
    <mpath xlink:href="#path15"></mpath>
  </animateMotion>
</circle><path id="path16" d="M 361.7567098723011 296.2515363392796
c 0 34.108915943952134 -8.34579858203084 9.797241813688379 -18.14304039571922 9.797241813688379
S 325.4706290808627 330.3604522832317 325.4706290808627 296.2515363392796
s 8.34579858203084 -9.797241813688379 18.14304039571922 -9.797241813688379
S 361.7567098723011 262.14262039532747 361.7567098723011 296.2515363392796
z" fill="none" stroke="none"></path>
<circle cx="0" cy="0" r="5.863426804489911" fill="#de9dd6" opacity="0.9">
  <animateMotion begin="-0.7575693701337305s" dur="10s" repeatCount="indefinite">
    <mpath xlink:href="#path16"></mpath>
  </animateMotion>
</circle><path id="path17" d="M 571.3041670519203 54.25015837357852
c 0 33.41201860938127 -8.175281149103927 9.597069175035047 -17.772350324138976 9.597069175035047
S 535.7594664036424 87.66217698295979 535.7594664036424 54.25015837357852
s 8.175281149103927 -9.597069175035047 17.772350324138976 -9.597069175035047
S 571.3041670519203 20.83813976419725 571.3041670519203 54.25015837357852
z" fill="none" stroke="none"></path>
<circle cx="0" cy="0" r="4.242448087052678" fill="#e0ff77" opacity="0.9">
  <animateMotion begin="-6.698245082817154s" dur="10s" repeatCount="indefinite">
    <mpath xlink:href="#path17"></mpath>
  </animateMotion>
</circle><path id="path18" d="M 337.2353979662616 12.587943177110409
c 0 23.37710674668795 -5.719930374189604 6.714700874048666 -12.43463124823827 6.714700874048666
S 312.3661354697851 35.96504992379836 312.3661354697851 12.587943177110409
s 5.719930374189604 -6.714700874048666 12.43463124823827 -6.714700874048666
S 337.2353979662616 -10.789163569577541 337.2353979662616 12.587943177110409
z" fill="none" stroke="none"></path>
<circle cx="0" cy="0" r="5.9527177014537305" fill="#9df871" opacity="0.9">
  <animateMotion begin="-7.291424125683726s" dur="10s" repeatCount="indefinite">
    <mpath xlink:href="#path18"></mpath>
  </animateMotion>
</circle><path id="path19" d="M 447.30225799225445 788.1985419094593
c 0 32.26174485340987 -7.893831187536458 9.266671394064538 -17.160502581600994 9.266671394064538
S 412.98125282905244 820.4602867628691 412.98125282905244 788.1985419094593
s 7.893831187536458 -9.266671394064538 17.160502581600994 -9.266671394064538
S 447.30225799225445 755.9367970560495 447.30225799225445 788.1985419094593
z" fill="none" stroke="none"></path>
<circle cx="0" cy="0" r="5.8624489212538835" fill="#51cacc" opacity="0.9">
  <animateMotion begin="-4.176953865465771s" dur="10s" repeatCount="indefinite">
    <mpath xlink:href="#path19"></mpath>
  </animateMotion>
</circle><path id="path20" d="M 764.0237122700862 320.8023453535918
c 0 29.136733154045622 -7.129200665351587 8.369061650630126 -15.498262315981712 8.369061650630126
S 733.0271876381228 349.9390785076374 733.0271876381228 320.8023453535918
s 7.129200665351587 -8.369061650630126 15.498262315981712 -8.369061650630126
S 764.0237122700862 291.6656121995462 764.0237122700862 320.8023453535918
z" fill="none" stroke="none"></path>
<circle cx="0" cy="0" r="4.8526767212296855" fill="#ff708e" opacity="0.9">
  <animateMotion begin="-8.233544030520974s" dur="10s" repeatCount="indefinite">
    <mpath xlink:href="#path20"></mpath>
  </animateMotion>
</circle><path id="path21" d="M 566.1156602367067 165.78664903474458
c 0 31.03171037140733 -7.592865303642217 8.913363617319126 -16.506228920961345 8.913363617319126
S 533.103202394784 196.8183594061519 533.103202394784 165.78664903474458
s 7.592865303642217 -8.913363617319126 16.506228920961345 -8.913363617319126
S 566.1156602367067 134.75493866333727 566.1156602367067 165.78664903474458
z" fill="none" stroke="none"></path>
<circle cx="0" cy="0" r="6.983665387452322" fill="#ff708e" opacity="0.9">
  <animateMotion begin="-2.0659131051329394s" dur="10s" repeatCount="indefinite">
    <mpath xlink:href="#path21"></mpath>
  </animateMotion>
</circle><path id="path22" d="M 283.63108537688186 918.333139985234
c 0 37.36790797776475 -9.143211526474353 10.733335270209023 -19.876546796683378 10.733335270209023
S 243.87799178351509 955.7010479629987 243.87799178351509 918.333139985234
s 9.143211526474353 -10.733335270209023 19.876546796683378 -10.733335270209023
S 283.63108537688186 880.9652320074692 283.63108537688186 918.333139985234
z" fill="none" stroke="none"></path>
<circle cx="0" cy="0" r="6.292459852285507" fill="#ff708e" opacity="0.9">
  <animateMotion begin="-9.417001350386167s" dur="10s" repeatCount="indefinite">
    <mpath xlink:href="#path22"></mpath>
  </animateMotion>
</circle><path id="path23" d="M 384.03828563977106 897.7363390345688
c 0 30.661500207185465 -7.502281965587932 8.8070266552554 -16.309308620843332 8.8070266552554
S 351.41966839808435 928.3978392417542 351.41966839808435 897.7363390345688
s 7.502281965587932 -8.8070266552554 16.309308620843332 -8.8070266552554
S 384.03828563977106 867.0748388273834 384.03828563977106 897.7363390345688
z" fill="none" stroke="none"></path>
<circle cx="0" cy="0" r="6.779732082979505" fill="#de9dd6" opacity="0.9">
  <animateMotion begin="-5.885015862009617s" dur="10s" repeatCount="indefinite">
    <mpath xlink:href="#path23"></mpath>
  </animateMotion>
</circle><path id="path24" d="M 157.8965460787923 565.9311907260923
c 0 25.71549299888718 -6.292088712493671 7.386365010318658 -13.678453722812328 7.386365010318658
S 130.53963863316767 591.6466837249794 130.53963863316767 565.9311907260923
s 6.292088712493671 -7.386365010318658 13.678453722812328 -7.386365010318658
S 157.8965460787923 540.2156977272051 157.8965460787923 565.9311907260923
z" fill="none" stroke="none"></path>
<circle cx="0" cy="0" r="4.249670602459023" fill="#de9dd6" opacity="0.9">
  <animateMotion begin="-2.4869555814823285s" dur="10s" repeatCount="indefinite">
    <mpath xlink:href="#path24"></mpath>
  </animateMotion>
</circle><path id="path25" d="M 794.490239128532 802.3708807092721
c 0 33.084268114376364 -8.095086879049536 9.502928075405977 -17.59801495445551 9.502928075405977
S 759.294209219621 835.4551488236485 759.294209219621 802.3708807092721
s 8.095086879049536 -9.502928075405977 17.59801495445551 -9.502928075405977
S 794.490239128532 769.2866125948957 794.490239128532 802.3708807092721
z" fill="none" stroke="none"></path>
<circle cx="0" cy="0" r="6.586735836817776" fill="#de9dd6" opacity="0.9">
  <animateMotion begin="-8.8815437847709s" dur="10s" repeatCount="indefinite">
    <mpath xlink:href="#path25"></mpath>
  </animateMotion>
</circle><path id="path26" d="M 266.1784858943265 281.2186542160663
c 0 29.512770622522016 -7.221209833170279 8.477072412852069 -15.698282246022348 8.477072412852069
S 234.7819214022818 310.7314248385883 234.7819214022818 281.2186542160663
s 7.221209833170279 -8.477072412852069 15.698282246022348 -8.477072412852069
S 266.1784858943265 251.70588359354426 266.1784858943265 281.2186542160663
z" fill="none" stroke="none"></path>
<circle cx="0" cy="0" r="4.7948847835695085" fill="#51cacc" opacity="0.9">
  <animateMotion begin="-1.5882207751969402s" dur="10s" repeatCount="indefinite">
    <mpath xlink:href="#path26"></mpath>
  </animateMotion>
</circle><path id="path27" d="M 625.8285490047056 442.03277300677297
c 0 25.800523796956647 -6.312894120531945 7.410788750189676 -13.723682870721621 7.410788750189676
S 598.3811832632623 467.83329680372964 598.3811832632623 442.03277300677297
s 6.312894120531945 -7.410788750189676 13.723682870721621 -7.410788750189676
S 625.8285490047056 416.2322492098163 625.8285490047056 442.03277300677297
z" fill="none" stroke="none"></path>
<circle cx="0" cy="0" r="4.286378205726798" fill="#ff708e" opacity="0.9">
  <animateMotion begin="-2.1503745479794723s" dur="10s" repeatCount="indefinite">
    <mpath xlink:href="#path27"></mpath>
  </animateMotion>
</circle><path id="path28" d="M 507.09340183465486 368.1026760770517
c 0 20.36236860532295 -4.982281680025827 5.848765450465102 -10.83104713049093 5.848765450465102
S 485.43130757367305 388.46504468237464 485.43130757367305 368.1026760770517
s 4.982281680025827 -5.848765450465102 10.83104713049093 -5.848765450465102
S 507.09340183465486 347.7403074717287 507.09340183465486 368.1026760770517
z" fill="none" stroke="none"></path>
<circle cx="0" cy="0" r="7.308104252894307" fill="#de9dd6" opacity="0.9">
  <animateMotion begin="-0.3547249468010727s" dur="10s" repeatCount="indefinite">
    <mpath xlink:href="#path28"></mpath>
  </animateMotion>
</circle><path id="path29" d="M 169.55218960430707 835.404177279325
c 0 21.564840580041878 -5.276503546180458 6.194156336820539 -11.470659883000998 6.194156336820539
S 146.6108698383051 856.9690178593669 146.6108698383051 835.404177279325
s 5.276503546180458 -6.194156336820539 11.470659883000998 -6.194156336820539
S 169.55218960430707 813.8393366992832 169.55218960430707 835.404177279325
z" fill="none" stroke="none"></path>
<circle cx="0" cy="0" r="6.525105694016726" fill="#ff708e" opacity="0.9">
  <animateMotion begin="-2.03267904396798s" dur="10s" repeatCount="indefinite">
    <mpath xlink:href="#path29"></mpath>
  </animateMotion>
</circle></g>
</svg>
